<?xml version="1.0" encoding="UTF-8" standalone="no"?>
<!-- Created with Inkscape (http://www.inkscape.org/) -->

<svg
   xmlns:dc="http://purl.org/dc/elements/1.1/"
   xmlns:cc="http://creativecommons.org/ns#"
   xmlns:rdf="http://www.w3.org/1999/02/22-rdf-syntax-ns#"
   xmlns:svg="http://www.w3.org/2000/svg"
   xmlns="http://www.w3.org/2000/svg"
   xmlns:sodipodi="http://sodipodi.sourceforge.net/DTD/sodipodi-0.dtd"
   xmlns:inkscape="http://www.inkscape.org/namespaces/inkscape"
   width="102.94998mm"
   height="62.065323mm"
   viewBox="0 0 364.7834 219.9165"
   id="svg2"
   version="1.1"
   inkscape:version="0.92.1 r15371"
   sodipodi:docname="logo.svg">
  <defs
     id="defs4" />
  <sodipodi:namedview
     id="base"
     pagecolor="#ffffff"
     bordercolor="#666666"
     borderopacity="1.0"
     inkscape:pageopacity="0.0"
     inkscape:pageshadow="2"
     inkscape:zoom="0.3390625"
     inkscape:cx="583.81503"
     inkscape:cy="139.3517"
     inkscape:document-units="px"
     inkscape:current-layer="layer1"
     showgrid="false"
     inkscape:window-width="1280"
     inkscape:window-height="657"
     inkscape:window-x="-8"
     inkscape:window-y="-8"
     inkscape:window-maximized="1"
     fit-margin-top="0"
     fit-margin-left="0"
     fit-margin-right="0"
     fit-margin-bottom="0" />
  <metadata
     id="metadata7">
    <rdf:RDF>
      <cc:Work
         rdf:about="">
        <dc:format>image/svg+xml</dc:format>
        <dc:type
           rdf:resource="http://purl.org/dc/dcmitype/StillImage" />
        <dc:title></dc:title>
      </cc:Work>
    </rdf:RDF>
  </metadata>
  <g
     inkscape:label="Layer 1"
     inkscape:groupmode="layer"
     id="layer1"
     transform="translate(-3.3366141,-3.3366181)">
    <path
       inkscape:connector-curvature="0"
       style="fill:none;stroke:#000000;stroke-width:7.5;stroke-miterlimit:4;stroke-dasharray:none;stroke-opacity:1"
       d="M 114.27171,7.0866226 A 107.18503,106.20826 0 0 0 7.0866141,113.29492 107.18503,106.20826 0 0 0 38.527614,188.34872 l 50.4955,-50.0354 a 35.72834,35.402753 0 0 1 -10.4798,-25.0184 35.72834,35.402753 0 0 1 35.728396,-35.402797 z m 142.9132,0 a 107.18503,106.20826 0 0 0 -107.1849,106.2082974 35.72834,35.402753 0 0 1 -35.7283,35.4027 v 70.8055 a 107.18503,106.20826 0 0 0 107.1849,-106.2082 35.72834,35.402753 0 0 1 35.7283,-35.402797 z m 75.7441,31.1544004 -50.4955,50.0354 a 35.72834,35.402753 0 0 1 10.4798,25.018497 35.72834,35.402753 0 0 1 -35.7284,35.4027 v 70.8055 a 107.18503,106.20826 0 0 0 107.1851,-106.2082 107.18503,106.20826 0 0 0 -31.441,-75.053897 z"
       id="path4294-3"
       inkscape:export-xdpi="46.200001"
       inkscape:export-ydpi="46.200001" />
  </g>
</svg>
